<svg width="890" height="262" viewBox="0 0 890 262" fill="none" xmlns="http://www.w3.org/2000/svg">
<g clip-path="url(#clip0_803_2)">
<path d="M261.55 0H0V261.55H261.55V0Z" fill="white"/>
<path d="M261.55 0H0V261.55H261.55V0Z" fill="#E02F2F"/>
<path d="M52.0898 99.8V93.41C54.2198 94.79 56.7098 95.9 60.0298 95.9C62.0598 95.9 64.8998 95.28 64.8998 93.52C64.8998 89.72 51.8198 91.52 51.8198 82.55C51.8198 77.56 55.8498 73.96 61.9498 73.96C64.3998 73.96 67.3598 74.56 69.3898 75.53V81.69C67.4898 80.52 64.8598 79.64 62.6098 79.64C59.7698 79.64 57.8498 80.67 57.8498 82.1C57.8498 85.86 71.1998 83.94 71.1998 93.03C71.1998 98.06 67.1298 101.75 60.9998 101.75C56.6898 101.75 54.0398 100.75 52.0798 99.8H52.0898Z" fill="white"/>
<path d="M79.1401 74.42H96.8601V79.87H85.1201V84.82H95.0501V90.42H85.1201V95.75H97.4001V101.28H79.1401V74.42Z" fill="white"/>
<path d="M106.09 74.42H111.95L123.31 91.34V74.42H129.15V101.28H123.32L111.92 84.28V101.28H106.09V74.42Z" fill="white"/>
<path d="M137.93 99.8V93.41C140.06 94.79 142.55 95.9 145.87 95.9C147.9 95.9 150.74 95.28 150.74 93.52C150.74 89.72 137.66 91.52 137.66 82.55C137.66 77.56 141.69 73.96 147.79 73.96C150.25 73.96 153.2 74.56 155.24 75.53V81.69C153.34 80.52 150.71 79.64 148.45 79.64C145.61 79.64 143.69 80.67 143.69 82.1C143.69 85.86 157.04 83.94 157.04 93.03C157.04 98.06 152.97 101.75 146.83 101.75C142.53 101.75 139.88 100.75 137.93 99.8Z" fill="white"/>
<path d="M164.97 74.42H182.7V79.87H170.96V84.82H180.89V90.42H170.96V95.75H183.24V101.28H164.98V74.42H164.97Z" fill="white"/>
<path d="M53.1001 117.58H62.7301L68.7801 136.07L74.8201 117.58H84.4901V144.44H78.6201V123.32L77.5901 126.79L71.3401 144.44H66.2401L59.9901 126.79L59.0201 123.45V144.44H53.1101V117.58H53.1001Z" fill="white"/>
<path d="M100.2 117.58H107.56L117.54 144.44H110.98L109.12 139.07H98.57L96.71 144.44H90.23L100.2 117.58ZM107.58 133.81L103.86 123.74L100.12 133.81H107.58Z" fill="white"/>
<path d="M123.29 117.58H129.34V127.98L138.1 117.58L145.47 117.54L135.93 128.55L146.46 144.43H138.9L131.39 132.73L129.36 135.15V144.43H123.31V117.57L123.29 117.58Z" fill="white"/>
<path d="M152.69 117.58H158.79V144.44H152.69V117.58Z" fill="white"/>
<path d="M168.58 117.58H174.45L185.82 134.5V117.58H191.63V144.44H185.82L174.43 127.44V144.44H168.6V117.58H168.58Z" fill="white"/>
<path d="M199.97 131.04C199.97 122.71 206.38 117.04 214.55 117.04C216.89 117.04 220.27 117.5 222.76 118.61V124.72C220.76 123.49 217.81 122.88 215.43 122.88C209.91 122.88 206.18 126.2 206.18 131.11C206.18 136.02 209.71 139.24 215.16 139.24C216.22 139.24 217.28 139.11 218.31 138.84V134.03H213.78V128.85H224.25V142.74C222.02 144.08 217.77 145.08 214.35 145.08C206.02 145.08 199.96 139.17 199.96 131.04H199.97Z" fill="white"/>
<path d="M53.0998 160.73H59.1498V181.87H70.7698V187.59H53.0898V160.73H53.0998Z" fill="white"/>
<path d="M84.7198 160.73H92.0898L102.07 187.59H95.5098L93.6498 182.22H83.0998L81.2398 187.59H74.7598L84.7298 160.73H84.7198ZM92.1098 176.96L88.3898 166.89L84.6498 176.96H92.1098Z" fill="white"/>
<path d="M108.66 160.73H120.13C125 160.73 128.49 163.95 128.49 168.37C128.49 170.42 127.49 172.25 125.92 173.59C128.1 174.84 129.55 176.89 129.55 179.46C129.55 183.91 126.06 187.59 120.88 187.59H108.56L108.65 160.73H108.66ZM119.71 171.51C121.36 171.51 122.59 170.32 122.59 168.67C122.59 167.02 121.36 165.83 119.71 165.83H114.3V171.51H119.71ZM120.17 182.48C122.2 182.48 123.58 181.1 123.58 179.41C123.58 177.57 122.2 176.34 120.17 176.34H114.3V182.48H120.17Z" fill="white"/>
<path d="M889.55 0H267.55V261.55H889.55V0Z" fill="#E02F2F"/>
<path d="M407.62 140.39H361.06V187.59H339.94V75.9099H361.06V121.67H407.62V75.9099H428.74V187.59H407.62V140.39Z" fill="white"/>
<path d="M448.1 145.67C448.1 119.27 462.34 102.15 486.82 102.15C512.9 102.15 524.9 121.35 524.9 144.23V150.95H469.38V153.03C469.38 165.03 476.26 173.19 489.7 173.19C499.78 173.19 505.86 168.39 510.98 161.83L522.02 174.15C515.14 183.59 502.98 189.51 487.46 189.51C462.82 189.51 448.1 172.39 448.1 145.67ZM469.38 137.03V138.31H503.62V136.87C503.62 125.35 497.7 117.51 487.14 117.51C476.58 117.51 469.38 125.51 469.38 137.03Z" fill="white"/>
<path d="M537.06 164.87C537.06 147.75 550.02 139.27 572.74 139.27H586.98V133.19C586.98 123.91 582.34 118.47 571.46 118.47C561.86 118.47 556.42 123.27 552.42 129.03L540.26 118.15C546.34 108.55 556.1 102.15 572.9 102.15C595.46 102.15 607.46 112.87 607.46 131.91V171.27H615.78V187.59H604.42C595.62 187.59 590.18 181.83 588.9 173.19H587.94C585.22 183.91 576.1 189.51 563.62 189.51C546.66 189.51 537.06 179.75 537.06 164.87ZM586.98 162.63V151.59H573.86C563.14 151.59 557.86 155.27 557.86 161.83V164.55C557.86 171.27 562.5 174.63 570.5 174.63C579.62 174.63 586.98 170.47 586.98 162.63Z" fill="white"/>
<path d="M652.9 187.59C638.98 187.59 632.42 180.23 632.42 167.43V69.1899H652.9V171.27H663.94V187.59H652.9Z" fill="white"/>
<path d="M683.14 166.31V120.39H670.82V104.07H677.22C683.3 104.07 685.22 101.19 685.22 95.4299V81.1899H703.62V104.07H720.74V120.39H703.62V171.27H719.46V187.59H704.74C690.66 187.59 683.14 179.91 683.14 166.31Z" fill="white"/>
<path d="M738.5 69.1899H758.98V117.99H759.78C763.14 109.03 770.18 102.15 783.14 102.15C800.26 102.15 809.86 113.99 809.86 134.79V187.59H789.38V136.87C789.38 125.03 785.38 118.95 775.62 118.95C767.14 118.95 758.98 123.43 758.98 132.39V187.59H738.5V69.1899Z" fill="white"/>
</g>
<defs>
<clipPath id="clip0_803_2">
<rect width="889.55" height="261.55" fill="white"/>
</clipPath>
</defs>
</svg>
